<svg xmlns="http://www.w3.org/2000/svg" xmlns:xlink="http://www.w3.org/1999/xlink" width="250" zoomAndPan="magnify" viewBox="0 0 187.5 60" height="80" preserveAspectRatio="xMidYMid meet" version="1.0"><defs><clipPath id="1f9f7cf3ae"><path d="M 0 0.078125 L 187 0.078125 L 187 59.917969 L 0 59.917969 Z M 0 0.078125 " clip-rule="nonzero"/></clipPath><clipPath id="3f2808cda6"><path d="M 0 0.078125 L 187 0.078125 L 187 20.0625 L 0 20.0625 Z M 0 0.078125 " clip-rule="nonzero"/></clipPath><clipPath id="68fc7fe734"><path d="M 0 0.078125 L 187 0.078125 L 187 20.0625 L 0 20.0625 Z M 0 0.078125 " clip-rule="nonzero"/></clipPath><clipPath id="58c024b257"><rect x="0" width="187" y="0" height="21"/></clipPath><clipPath id="8671cb4acb"><path d="M 0 24.0625 L 187 24.0625 L 187 37.558594 L 0 37.558594 Z M 0 24.0625 " clip-rule="nonzero"/></clipPath><clipPath id="86e12555bd"><path d="M 0 0.0625 L 187 0.0625 L 187 13.558594 L 0 13.558594 Z M 0 0.0625 " clip-rule="nonzero"/></clipPath><clipPath id="1f2649b3b9"><rect x="0" width="187" y="0" height="14"/></clipPath><clipPath id="efee17717e"><path d="M 0 41.542969 L 187 41.542969 L 187 48.402344 L 0 48.402344 Z M 0 41.542969 " clip-rule="nonzero"/></clipPath><clipPath id="7f0b0a8542"><path d="M 0 0.542969 L 187 0.542969 L 187 7.402344 L 0 7.402344 Z M 0 0.542969 " clip-rule="nonzero"/></clipPath><clipPath id="1a8d6ba73e"><rect x="0" width="187" y="0" height="8"/></clipPath><clipPath id="96c269a18b"><path d="M 0 52.15625 L 187 52.15625 L 187 55.960938 L 0 55.960938 Z M 0 52.15625 " clip-rule="nonzero"/></clipPath><clipPath id="37e360fd8e"><path d="M 0 0.15625 L 187 0.15625 L 187 3.960938 L 0 3.960938 Z M 0 0.15625 " clip-rule="nonzero"/></clipPath><clipPath id="bc10188269"><rect x="0" width="187" y="0" height="4"/></clipPath><clipPath id="51b1291d96"><path d="M 0 58.019531 L 187 58.019531 L 187 59.917969 L 0 59.917969 Z M 0 58.019531 " clip-rule="nonzero"/></clipPath><clipPath id="62d0c5e970"><path d="M 0 0.0195312 L 187 0.0195312 L 187 1.917969 L 0 1.917969 Z M 0 0.0195312 " clip-rule="nonzero"/></clipPath><clipPath id="f7a364d30c"><rect x="0" width="187" y="0" height="2"/></clipPath><clipPath id="7e05258a09"><rect x="0" width="187" y="0" height="60"/></clipPath></defs><g clip-path="url(#1f9f7cf3ae)"><g transform="matrix(1, 0, 0, 1, 0, -0.00000000000000501)"><g clip-path="url(#7e05258a09)"><g clip-path="url(#3f2808cda6)"><g transform="matrix(1, 0, 0, 1, 0, -0.00000000000000501)"><g clip-path="url(#58c024b257)"><g clip-path="url(#68fc7fe734)"><path fill="#2d322e" d="M 187 0.078125 L 187 20.0625 L -0.0195312 20.0625 L -0.0195312 0.078125 Z M 187 0.078125 " fill-opacity="1" fill-rule="nonzero"/></g></g></g></g><g clip-path="url(#8671cb4acb)"><g transform="matrix(1, 0, 0, 1, 0, 24)"><g clip-path="url(#1f2649b3b9)"><g clip-path="url(#86e12555bd)"><path fill="#2d322e" d="M 187 0.0625 L 187 13.558594 L -0.015625 13.558594 L -0.015625 0.0625 Z M 187 0.0625 " fill-opacity="1" fill-rule="nonzero"/></g></g></g></g><g clip-path="url(#efee17717e)"><g transform="matrix(1, 0, 0, 1, 0, 41)"><g clip-path="url(#1a8d6ba73e)"><g clip-path="url(#7f0b0a8542)"><path fill="#2d322e" d="M 187 0.542969 L 187 7.402344 L -0.0078125 7.402344 L -0.0078125 0.542969 Z M 187 0.542969 " fill-opacity="1" fill-rule="nonzero"/></g></g></g></g><g clip-path="url(#96c269a18b)"><g transform="matrix(1, 0, 0, 1, 0, 52)"><g clip-path="url(#bc10188269)"><g clip-path="url(#37e360fd8e)"><path fill="#2d322e" d="M 187 0.15625 L 187 3.960938 L 0 3.960938 L 0 0.15625 Z M 187 0.15625 " fill-opacity="1" fill-rule="nonzero"/></g></g></g></g><g clip-path="url(#51b1291d96)"><g transform="matrix(1, 0, 0, 1, 0, 58)"><g clip-path="url(#f7a364d30c)"><g clip-path="url(#62d0c5e970)"><path fill="#2d322e" d="M 187 0.0195312 L 187 1.917969 L 0 1.917969 L 0 0.0195312 Z M 187 0.0195312 " fill-opacity="1" fill-rule="nonzero"/></g></g></g></g></g></g></g></svg>