<svg xmlns="http://www.w3.org/2000/svg" xmlns:xlink="http://www.w3.org/1999/xlink" width="40" zoomAndPan="magnify" viewBox="0 0 30 30.000001" height="40" preserveAspectRatio="xMidYMid meet" version="1.0"><defs><clipPath id="901b88a9dc"><path d="M 0.484375 0 L 29.515625 0 L 29.515625 29.03125 L 0.484375 29.03125 Z M 0.484375 0 " clip-rule="nonzero"/></clipPath><clipPath id="04b78f074d"><path d="M 0.484375 0 L 29.515625 0 L 29.515625 9.695312 L 0.484375 9.695312 Z M 0.484375 0 " clip-rule="nonzero"/></clipPath><clipPath id="edb354175c"><path d="M 0.484375 0 L 29.515625 0 L 29.515625 9.695312 L 0.484375 9.695312 Z M 0.484375 0 " clip-rule="nonzero"/></clipPath><clipPath id="a21f4f0684"><rect x="0" width="30" y="0" height="10"/></clipPath><clipPath id="93d3857ad1"><path d="M 0.484375 11.636719 L 29.515625 11.636719 L 29.515625 18.183594 L 0.484375 18.183594 Z M 0.484375 11.636719 " clip-rule="nonzero"/></clipPath><clipPath id="466500a3a2"><path d="M 0.484375 0.636719 L 29.515625 0.636719 L 29.515625 7.183594 L 0.484375 7.183594 Z M 0.484375 0.636719 " clip-rule="nonzero"/></clipPath><clipPath id="51901bebc3"><rect x="0" width="30" y="0" height="8"/></clipPath><clipPath id="93d3f6d6a3"><path d="M 0.484375 20.117188 L 29.515625 20.117188 L 29.515625 23.445312 L 0.484375 23.445312 Z M 0.484375 20.117188 " clip-rule="nonzero"/></clipPath><clipPath id="59bc2e263c"><path d="M 0.484375 0.117188 L 29.515625 0.117188 L 29.515625 3.445312 L 0.484375 3.445312 Z M 0.484375 0.117188 " clip-rule="nonzero"/></clipPath><clipPath id="9830dd8f2b"><rect x="0" width="30" y="0" height="4"/></clipPath><clipPath id="ef3b5b0d3c"><path d="M 0.484375 25.265625 L 29.515625 25.265625 L 29.515625 27.113281 L 0.484375 27.113281 Z M 0.484375 25.265625 " clip-rule="nonzero"/></clipPath><clipPath id="35046de8aa"><path d="M 0.484375 0.265625 L 29.515625 0.265625 L 29.515625 2.113281 L 0.484375 2.113281 Z M 0.484375 0.265625 " clip-rule="nonzero"/></clipPath><clipPath id="bd2d73e808"><rect x="0" width="30" y="0" height="3"/></clipPath><clipPath id="39bb6b3379"><path d="M 0.484375 28.109375 L 29.515625 28.109375 L 29.515625 29.03125 L 0.484375 29.03125 Z M 0.484375 28.109375 " clip-rule="nonzero"/></clipPath><clipPath id="4655a8bd18"><path d="M 0.484375 0.109375 L 29.515625 0.109375 L 29.515625 1.03125 L 0.484375 1.03125 Z M 0.484375 0.109375 " clip-rule="nonzero"/></clipPath><clipPath id="33e29317dc"><rect x="0" width="30" y="0" height="2"/></clipPath><clipPath id="b973a44c7c"><rect x="0" width="30" y="0" height="30"/></clipPath></defs><g clip-path="url(#901b88a9dc)"><g transform="matrix(1, 0, 0, 1, 0, 0.000000000000005692)"><g clip-path="url(#b973a44c7c)"><g clip-path="url(#04b78f074d)"><g transform="matrix(1, 0, 0, 1, 0, 0.000000000000005692)"><g clip-path="url(#a21f4f0684)"><g clip-path="url(#edb354175c)"><path fill="#2d322e" d="M 29.515625 0 L 29.515625 9.695312 L 0.46875 9.695312 L 0.46875 0 Z M 29.515625 0 " fill-opacity="1" fill-rule="nonzero"/></g></g></g></g><g clip-path="url(#93d3857ad1)"><g transform="matrix(1, 0, 0, 1, 0, 11)"><g clip-path="url(#51901bebc3)"><g clip-path="url(#466500a3a2)"><path fill="#2d322e" d="M 29.515625 0.636719 L 29.515625 7.183594 L 0.492188 7.183594 L 0.492188 0.636719 Z M 29.515625 0.636719 " fill-opacity="1" fill-rule="nonzero"/></g></g></g></g><g clip-path="url(#93d3f6d6a3)"><g transform="matrix(1, 0, 0, 1, 0, 20)"><g clip-path="url(#9830dd8f2b)"><g clip-path="url(#59bc2e263c)"><path fill="#2d322e" d="M 29.515625 0.117188 L 29.515625 3.445312 L 0.484375 3.445312 L 0.484375 0.117188 Z M 29.515625 0.117188 " fill-opacity="1" fill-rule="nonzero"/></g></g></g></g><g clip-path="url(#ef3b5b0d3c)"><g transform="matrix(1, 0, 0, 1, 0, 25)"><g clip-path="url(#bd2d73e808)"><g clip-path="url(#35046de8aa)"><path fill="#2d322e" d="M 29.515625 0.265625 L 29.515625 2.113281 L 0.480469 2.113281 L 0.480469 0.265625 Z M 29.515625 0.265625 " fill-opacity="1" fill-rule="nonzero"/></g></g></g></g><g clip-path="url(#39bb6b3379)"><g transform="matrix(1, 0, 0, 1, 0, 28)"><g clip-path="url(#33e29317dc)"><g clip-path="url(#4655a8bd18)"><path fill="#2d322e" d="M 29.515625 0.109375 L 29.515625 1.03125 L 0.484375 1.03125 L 0.484375 0.109375 Z M 29.515625 0.109375 " fill-opacity="1" fill-rule="nonzero"/></g></g></g></g></g></g></g></svg>