<svg xmlns="http://www.w3.org/2000/svg" xmlns:xlink="http://www.w3.org/1999/xlink" width="150" zoomAndPan="magnify" viewBox="0 0 112.5 37.5" height="50" preserveAspectRatio="xMidYMid meet" version="1.0"><defs><clipPath id="a77b837e26"><path d="M 0.492188 0 L 111.511719 0 L 111.511719 37.007812 L 0.492188 37.007812 Z M 0.492188 0 " clip-rule="nonzero"/></clipPath><clipPath id="38b339a023"><path d="M 0.492188 0 L 111.511719 0 L 111.511719 12.355469 L 0.492188 12.355469 Z M 0.492188 0 " clip-rule="nonzero"/></clipPath><clipPath id="8acadbc8d2"><path d="M 0.492188 0 L 111.511719 0 L 111.511719 12.355469 L 0.492188 12.355469 Z M 0.492188 0 " clip-rule="nonzero"/></clipPath><clipPath id="19b01f2044"><rect x="0" width="112" y="0" height="13"/></clipPath><clipPath id="dab605c2d4"><path d="M 0.492188 14.832031 L 111.511719 14.832031 L 111.511719 23.175781 L 0.492188 23.175781 Z M 0.492188 14.832031 " clip-rule="nonzero"/></clipPath><clipPath id="fc48710efa"><path d="M 0.492188 0.832031 L 111.511719 0.832031 L 111.511719 9.175781 L 0.492188 9.175781 Z M 0.492188 0.832031 " clip-rule="nonzero"/></clipPath><clipPath id="0c8ee7bbc0"><rect x="0" width="112" y="0" height="10"/></clipPath><clipPath id="cbcb9fa210"><path d="M 0.492188 25.640625 L 111.511719 25.640625 L 111.511719 29.882812 L 0.492188 29.882812 Z M 0.492188 25.640625 " clip-rule="nonzero"/></clipPath><clipPath id="057afda319"><path d="M 0.492188 0.640625 L 111.511719 0.640625 L 111.511719 4.882812 L 0.492188 4.882812 Z M 0.492188 0.640625 " clip-rule="nonzero"/></clipPath><clipPath id="bb591c363c"><rect x="0" width="112" y="0" height="5"/></clipPath><clipPath id="c75ecf69ba"><path d="M 0.492188 32.207031 L 111.511719 32.207031 L 111.511719 34.558594 L 0.492188 34.558594 Z M 0.492188 32.207031 " clip-rule="nonzero"/></clipPath><clipPath id="939727af4c"><path d="M 0.492188 0.207031 L 111.511719 0.207031 L 111.511719 2.558594 L 0.492188 2.558594 Z M 0.492188 0.207031 " clip-rule="nonzero"/></clipPath><clipPath id="5d1b480910"><rect x="0" width="112" y="0" height="3"/></clipPath><clipPath id="3fa49da9b9"><path d="M 0.492188 35.832031 L 111.511719 35.832031 L 111.511719 37.007812 L 0.492188 37.007812 Z M 0.492188 35.832031 " clip-rule="nonzero"/></clipPath><clipPath id="7097029372"><path d="M 0.492188 0.832031 L 111.511719 0.832031 L 111.511719 2.007812 L 0.492188 2.007812 Z M 0.492188 0.832031 " clip-rule="nonzero"/></clipPath><clipPath id="d3db935a09"><rect x="0" width="112" y="0" height="3"/></clipPath><clipPath id="f2f5eecd77"><rect x="0" width="112" y="0" height="38"/></clipPath></defs><g clip-path="url(#a77b837e26)"><g transform="matrix(1, 0, 0, 1, 0.000000000000000056, -0.000000000000001478)"><g clip-path="url(#f2f5eecd77)"><g clip-path="url(#38b339a023)"><g transform="matrix(1, 0, 0, 1, 0.000000000000000056, -0.000000000000001478)"><g clip-path="url(#19b01f2044)"><g clip-path="url(#8acadbc8d2)"><path fill="#2d322e" d="M 111.511719 0 L 111.511719 12.355469 L 0.488281 12.355469 L 0.488281 0 Z M 111.511719 0 " fill-opacity="1" fill-rule="nonzero"/></g></g></g></g><g clip-path="url(#dab605c2d4)"><g transform="matrix(1, 0, 0, 1, 0.000000000000000056, 14)"><g clip-path="url(#0c8ee7bbc0)"><g clip-path="url(#fc48710efa)"><path fill="#2d322e" d="M 111.511719 0.832031 L 111.511719 9.175781 L 0.488281 9.175781 L 0.488281 0.832031 Z M 111.511719 0.832031 " fill-opacity="1" fill-rule="nonzero"/></g></g></g></g><g clip-path="url(#cbcb9fa210)"><g transform="matrix(1, 0, 0, 1, 0.000000000000000056, 25)"><g clip-path="url(#bb591c363c)"><g clip-path="url(#057afda319)"><path fill="#2d322e" d="M 111.511719 0.640625 L 111.511719 4.882812 L 0.484375 4.882812 L 0.484375 0.640625 Z M 111.511719 0.640625 " fill-opacity="1" fill-rule="nonzero"/></g></g></g></g><g clip-path="url(#c75ecf69ba)"><g transform="matrix(1, 0, 0, 1, 0.000000000000000056, 32)"><g clip-path="url(#5d1b480910)"><g clip-path="url(#939727af4c)"><path fill="#2d322e" d="M 111.511719 0.207031 L 111.511719 2.558594 L 0.492188 2.558594 L 0.492188 0.207031 Z M 111.511719 0.207031 " fill-opacity="1" fill-rule="nonzero"/></g></g></g></g><g clip-path="url(#3fa49da9b9)"><g transform="matrix(1, 0, 0, 1, 0.000000000000000056, 35)"><g clip-path="url(#d3db935a09)"><g clip-path="url(#7097029372)"><path fill="#2d322e" d="M 111.511719 0.832031 L 111.511719 2.007812 L 0.492188 2.007812 L 0.492188 0.832031 Z M 111.511719 0.832031 " fill-opacity="1" fill-rule="nonzero"/></g></g></g></g></g></g></g></svg>