<svg xmlns="http://www.w3.org/2000/svg" xmlns:xlink="http://www.w3.org/1999/xlink" width="40" zoomAndPan="magnify" viewBox="0 0 30 30.000001" height="40" preserveAspectRatio="xMidYMid meet" version="1.0"><defs><clipPath id="127332ad22"><path d="M 0.484375 0.00390625 L 29.511719 0.00390625 L 29.511719 9.699219 L 0.484375 9.699219 Z M 0.484375 0.00390625 " clip-rule="nonzero"/></clipPath><clipPath id="87a7ed7346"><path d="M 0.484375 0.00390625 L 29.511719 0.00390625 L 29.511719 9.699219 L 0.484375 9.699219 Z M 0.484375 0.00390625 " clip-rule="nonzero"/></clipPath><clipPath id="1e0543e7e4"><rect x="0" width="30" y="0" height="10"/></clipPath><clipPath id="fea44ee071"><path d="M 0.484375 11.636719 L 29.515625 11.636719 L 29.515625 18.183594 L 0.484375 18.183594 Z M 0.484375 11.636719 " clip-rule="nonzero"/></clipPath><clipPath id="ba4142078c"><path d="M 0.484375 0.636719 L 29.515625 0.636719 L 29.515625 7.183594 L 0.484375 7.183594 Z M 0.484375 0.636719 " clip-rule="nonzero"/></clipPath><clipPath id="6bb4d76be4"><rect x="0" width="30" y="0" height="8"/></clipPath><clipPath id="3173dfec3d"><path d="M 0.484375 20.117188 L 29.515625 20.117188 L 29.515625 23.445312 L 0.484375 23.445312 Z M 0.484375 20.117188 " clip-rule="nonzero"/></clipPath><clipPath id="ba93ad7724"><path d="M 0.484375 0.117188 L 29.515625 0.117188 L 29.515625 3.445312 L 0.484375 3.445312 Z M 0.484375 0.117188 " clip-rule="nonzero"/></clipPath><clipPath id="5005fca81e"><rect x="0" width="30" y="0" height="4"/></clipPath><clipPath id="aff63770dc"><path d="M 0.484375 25.269531 L 29.511719 25.269531 L 29.511719 27.117188 L 0.484375 27.117188 Z M 0.484375 25.269531 " clip-rule="nonzero"/></clipPath><clipPath id="4fe1655545"><path d="M 0.484375 0.269531 L 29.511719 0.269531 L 29.511719 2.117188 L 0.484375 2.117188 Z M 0.484375 0.269531 " clip-rule="nonzero"/></clipPath><clipPath id="7b27a603e8"><rect x="0" width="30" y="0" height="3"/></clipPath><clipPath id="346902bd3f"><path d="M 0.484375 28.113281 L 29.515625 28.113281 L 29.515625 29.03125 L 0.484375 29.03125 Z M 0.484375 28.113281 " clip-rule="nonzero"/></clipPath><clipPath id="91b553cd80"><path d="M 0.484375 0.113281 L 29.515625 0.113281 L 29.515625 1.03125 L 0.484375 1.03125 Z M 0.484375 0.113281 " clip-rule="nonzero"/></clipPath><clipPath id="44a1945b96"><rect x="0" width="30" y="0" height="2"/></clipPath></defs><g clip-path="url(#127332ad22)"><g transform="matrix(1, 0, 0, 1, 0, 0.000000000000005692)"><g clip-path="url(#1e0543e7e4)"><g clip-path="url(#87a7ed7346)"><path fill="#ffffff" d="M 29.511719 0.00390625 L 29.511719 9.699219 L 0.464844 9.699219 L 0.464844 0.00390625 Z M 29.511719 0.00390625 " fill-opacity="1" fill-rule="nonzero"/></g></g></g></g><g clip-path="url(#fea44ee071)"><g transform="matrix(1, 0, 0, 1, 0, 11)"><g clip-path="url(#6bb4d76be4)"><g clip-path="url(#ba4142078c)"><path fill="#ffffff" d="M 29.515625 0.636719 L 29.515625 7.183594 L 0.488281 7.183594 L 0.488281 0.636719 Z M 29.515625 0.636719 " fill-opacity="1" fill-rule="nonzero"/></g></g></g></g><g clip-path="url(#3173dfec3d)"><g transform="matrix(1, 0, 0, 1, 0, 20)"><g clip-path="url(#5005fca81e)"><g clip-path="url(#ba93ad7724)"><path fill="#ffffff" d="M 29.515625 0.117188 L 29.515625 3.445312 L 0.484375 3.445312 L 0.484375 0.117188 Z M 29.515625 0.117188 " fill-opacity="1" fill-rule="nonzero"/></g></g></g></g><g clip-path="url(#aff63770dc)"><g transform="matrix(1, 0, 0, 1, 0, 25)"><g clip-path="url(#7b27a603e8)"><g clip-path="url(#4fe1655545)"><path fill="#ffffff" d="M 29.511719 0.269531 L 29.511719 2.117188 L 0.476562 2.117188 L 0.476562 0.269531 Z M 29.511719 0.269531 " fill-opacity="1" fill-rule="nonzero"/></g></g></g></g><g clip-path="url(#346902bd3f)"><g transform="matrix(1, 0, 0, 1, 0, 28)"><g clip-path="url(#44a1945b96)"><g clip-path="url(#91b553cd80)"><path fill="#ffffff" d="M 29.515625 0.113281 L 29.515625 1.035156 L 0.484375 1.035156 L 0.484375 0.113281 Z M 29.515625 0.113281 " fill-opacity="1" fill-rule="nonzero"/></g></g></g></g></svg>