<svg xmlns="http://www.w3.org/2000/svg" xmlns:xlink="http://www.w3.org/1999/xlink" width="150" zoomAndPan="magnify" viewBox="0 0 112.5 37.5" height="50" preserveAspectRatio="xMidYMid meet" version="1.0"><defs><clipPath id="894e28f982"><path d="M 0.492188 0.00390625 L 111.511719 0.00390625 L 111.511719 12.359375 L 0.492188 12.359375 Z M 0.492188 0.00390625 " clip-rule="nonzero"/></clipPath><clipPath id="ad20846c12"><path d="M 0.492188 0.00390625 L 111.511719 0.00390625 L 111.511719 12.359375 L 0.492188 12.359375 Z M 0.492188 0.00390625 " clip-rule="nonzero"/></clipPath><clipPath id="9cbc944276"><rect x="0" width="112" y="0" height="13"/></clipPath><clipPath id="d1c45eabd4"><path d="M 0.492188 14.835938 L 111.507812 14.835938 L 111.507812 23.179688 L 0.492188 23.179688 Z M 0.492188 14.835938 " clip-rule="nonzero"/></clipPath><clipPath id="c77fca2a61"><path d="M 0.492188 0.835938 L 111.507812 0.835938 L 111.507812 9.179688 L 0.492188 9.179688 Z M 0.492188 0.835938 " clip-rule="nonzero"/></clipPath><clipPath id="adf090f009"><rect x="0" width="112" y="0" height="10"/></clipPath><clipPath id="b9ed85f3c1"><path d="M 0.492188 25.644531 L 111.507812 25.644531 L 111.507812 29.886719 L 0.492188 29.886719 Z M 0.492188 25.644531 " clip-rule="nonzero"/></clipPath><clipPath id="bdd105e84c"><path d="M 0.492188 0.644531 L 111.507812 0.644531 L 111.507812 4.886719 L 0.492188 4.886719 Z M 0.492188 0.644531 " clip-rule="nonzero"/></clipPath><clipPath id="4ba885d233"><rect x="0" width="112" y="0" height="5"/></clipPath><clipPath id="94d173d9df"><path d="M 0.492188 32.207031 L 111.511719 32.207031 L 111.511719 34.5625 L 0.492188 34.5625 Z M 0.492188 32.207031 " clip-rule="nonzero"/></clipPath><clipPath id="c376fe6139"><path d="M 0.492188 0.207031 L 111.511719 0.207031 L 111.511719 2.5625 L 0.492188 2.5625 Z M 0.492188 0.207031 " clip-rule="nonzero"/></clipPath><clipPath id="238e272a5d"><rect x="0" width="112" y="0" height="3"/></clipPath><clipPath id="68e3d040bf"><path d="M 0.492188 35.835938 L 111.507812 35.835938 L 111.507812 37.007812 L 0.492188 37.007812 Z M 0.492188 35.835938 " clip-rule="nonzero"/></clipPath><clipPath id="48d9395c9a"><path d="M 0.492188 0.835938 L 111.507812 0.835938 L 111.507812 2.007812 L 0.492188 2.007812 Z M 0.492188 0.835938 " clip-rule="nonzero"/></clipPath><clipPath id="cdfa770afd"><rect x="0" width="112" y="0" height="3"/></clipPath></defs><g clip-path="url(#894e28f982)"><g transform="matrix(1, 0, 0, 1, 0.000000000000000056, -0.000000000000001478)"><g clip-path="url(#9cbc944276)"><g clip-path="url(#ad20846c12)"><path fill="#ffffff" d="M 111.511719 0.00390625 L 111.511719 12.359375 L 0.484375 12.359375 L 0.484375 0.00390625 Z M 111.511719 0.00390625 " fill-opacity="1" fill-rule="nonzero"/></g></g></g></g><g clip-path="url(#d1c45eabd4)"><g transform="matrix(1, 0, 0, 1, 0.000000000000000056, 14)"><g clip-path="url(#adf090f009)"><g clip-path="url(#c77fca2a61)"><path fill="#ffffff" d="M 111.507812 0.835938 L 111.507812 9.179688 L 0.484375 9.179688 L 0.484375 0.835938 Z M 111.507812 0.835938 " fill-opacity="1" fill-rule="nonzero"/></g></g></g></g><g clip-path="url(#b9ed85f3c1)"><g transform="matrix(1, 0, 0, 1, 0.000000000000000056, 25)"><g clip-path="url(#4ba885d233)"><g clip-path="url(#bdd105e84c)"><path fill="#ffffff" d="M 111.507812 0.644531 L 111.507812 4.886719 L 0.480469 4.886719 L 0.480469 0.644531 Z M 111.507812 0.644531 " fill-opacity="1" fill-rule="nonzero"/></g></g></g></g><g clip-path="url(#94d173d9df)"><g transform="matrix(1, 0, 0, 1, 0.000000000000000056, 32)"><g clip-path="url(#238e272a5d)"><g clip-path="url(#c376fe6139)"><path fill="#ffffff" d="M 111.511719 0.207031 L 111.511719 2.5625 L 0.488281 2.5625 L 0.488281 0.207031 Z M 111.511719 0.207031 " fill-opacity="1" fill-rule="nonzero"/></g></g></g></g><g clip-path="url(#68e3d040bf)"><g transform="matrix(1, 0, 0, 1, 0.000000000000000056, 35)"><g clip-path="url(#cdfa770afd)"><g clip-path="url(#48d9395c9a)"><path fill="#ffffff" d="M 111.507812 0.835938 L 111.507812 2.011719 L 0.488281 2.011719 L 0.488281 0.835938 Z M 111.507812 0.835938 " fill-opacity="1" fill-rule="nonzero"/></g></g></g></g></svg>