<svg xmlns="http://www.w3.org/2000/svg" xmlns:xlink="http://www.w3.org/1999/xlink" width="1080" zoomAndPan="magnify" viewBox="0 0 810 809.999993" height="1080" preserveAspectRatio="xMidYMid meet" version="1.0"><defs><clipPath id="58a27b5200"><path d="M 0 0 L 809.988281 0 L 809.988281 270.480469 L 0 270.480469 Z M 0 0 " clip-rule="nonzero"/></clipPath><clipPath id="999374cbcd"><path d="M 0 0 L 809.988281 0 L 809.988281 270.480469 L 0 270.480469 Z M 0 0 " clip-rule="nonzero"/></clipPath><clipPath id="f67415e022"><rect x="0" width="810" y="0" height="271"/></clipPath><clipPath id="a9bc19f0c1"><path d="M 0 324.660156 L 809.992188 324.660156 L 809.992188 507.3125 L 0 507.3125 Z M 0 324.660156 " clip-rule="nonzero"/></clipPath><clipPath id="e75788e071"><path d="M 0 0.660156 L 809.992188 0.660156 L 809.992188 183.3125 L 0 183.3125 Z M 0 0.660156 " clip-rule="nonzero"/></clipPath><clipPath id="50782bf0fd"><rect x="0" width="810" y="0" height="184"/></clipPath><clipPath id="3d4a69f749"><path d="M 0 561.257812 L 809.988281 561.257812 L 809.988281 654.074219 L 0 654.074219 Z M 0 561.257812 " clip-rule="nonzero"/></clipPath><clipPath id="5d6ee0f822"><path d="M 0 0.257812 L 809.988281 0.257812 L 809.988281 93.074219 L 0 93.074219 Z M 0 0.257812 " clip-rule="nonzero"/></clipPath><clipPath id="4047b6c63d"><rect x="0" width="810" y="0" height="94"/></clipPath><clipPath id="be22c03778"><path d="M 0 704.917969 L 809.992188 704.917969 L 809.992188 756.414062 L 0 756.414062 Z M 0 704.917969 " clip-rule="nonzero"/></clipPath><clipPath id="3fc008b3e9"><path d="M 0 0.917969 L 809.992188 0.917969 L 809.992188 52.414062 L 0 52.414062 Z M 0 0.917969 " clip-rule="nonzero"/></clipPath><clipPath id="d57cc2e072"><rect x="0" width="810" y="0" height="53"/></clipPath><clipPath id="658a3bb67c"><path d="M 0 784.25 L 809.988281 784.25 L 809.988281 810 L 0 810 Z M 0 784.25 " clip-rule="nonzero"/></clipPath><clipPath id="e63ffb7cb9"><path d="M 0 0.25 L 809.988281 0.25 L 809.988281 26 L 0 26 Z M 0 0.25 " clip-rule="nonzero"/></clipPath><clipPath id="e5351bae9d"><rect x="0" width="810" y="0" height="26"/></clipPath><clipPath id="e9e0b57a9e"><rect x="0" width="810" y="0" height="810"/></clipPath></defs><g transform="matrix(1, 0, 0, 1, 0, 0.000000000000039746)"><g clip-path="url(#e9e0b57a9e)"><g clip-path="url(#58a27b5200)"><g transform="matrix(1, 0, 0, 1, 0, 0.000000000000039746)"><g clip-path="url(#f67415e022)"><g clip-path="url(#999374cbcd)"><path fill="#2d322e" d="M 809.988281 0 L 809.988281 270.480469 L -0.394531 270.480469 L -0.394531 0 Z M 809.988281 0 " fill-opacity="1" fill-rule="nonzero"/></g></g></g></g><g clip-path="url(#a9bc19f0c1)"><g transform="matrix(1, 0, 0, 1, 0, 324)"><g clip-path="url(#50782bf0fd)"><g clip-path="url(#e75788e071)"><path fill="#2d322e" d="M 809.992188 0.660156 L 809.992188 183.3125 L 0.191406 183.3125 L 0.191406 0.660156 Z M 809.992188 0.660156 " fill-opacity="1" fill-rule="nonzero"/></g></g></g></g><g clip-path="url(#3d4a69f749)"><g transform="matrix(1, 0, 0, 1, 0, 561)"><g clip-path="url(#4047b6c63d)"><g clip-path="url(#5d6ee0f822)"><path fill="#2d322e" d="M 809.988281 0.257812 L 809.988281 93.074219 L 0.0507812 93.074219 L 0.0507812 0.257812 Z M 809.988281 0.257812 " fill-opacity="1" fill-rule="nonzero"/></g></g></g></g><g clip-path="url(#be22c03778)"><g transform="matrix(1, 0, 0, 1, 0, 704)"><g clip-path="url(#d57cc2e072)"><g clip-path="url(#3fc008b3e9)"><path fill="#2d322e" d="M 809.992188 0.917969 L 809.992188 52.414062 L -0.0859375 52.414062 L -0.0859375 0.917969 Z M 809.992188 0.917969 " fill-opacity="1" fill-rule="nonzero"/></g></g></g></g><g clip-path="url(#658a3bb67c)"><g transform="matrix(1, 0, 0, 1, 0, 784)"><g clip-path="url(#e5351bae9d)"><g clip-path="url(#e63ffb7cb9)"><path fill="#2d322e" d="M 809.988281 0.25 L 809.988281 26 L 0.0117188 26 L 0.0117188 0.25 Z M 809.988281 0.25 " fill-opacity="1" fill-rule="nonzero"/></g></g></g></g></g></g></svg>