<svg xmlns="http://www.w3.org/2000/svg" xmlns:xlink="http://www.w3.org/1999/xlink" width="1080" zoomAndPan="magnify" viewBox="0 0 810 809.999993" height="1080" preserveAspectRatio="xMidYMid meet" version="1.0"><defs><clipPath id="308584333c"><path d="M 0 0.00390625 L 809.996094 0.00390625 L 809.996094 270.484375 L 0 270.484375 Z M 0 0.00390625 " clip-rule="nonzero"/></clipPath><clipPath id="672a4d8bae"><path d="M 0 0.00390625 L 809.996094 0.00390625 L 809.996094 270.484375 L 0 270.484375 Z M 0 0.00390625 " clip-rule="nonzero"/></clipPath><clipPath id="e41e4bd302"><rect x="0" width="810" y="0" height="271"/></clipPath><clipPath id="809992a783"><path d="M 0 324.667969 L 810 324.667969 L 810 507.316406 L 0 507.316406 Z M 0 324.667969 " clip-rule="nonzero"/></clipPath><clipPath id="f4667ab782"><path d="M 0 0.667969 L 810 0.667969 L 810 183.316406 L 0 183.316406 Z M 0 0.667969 " clip-rule="nonzero"/></clipPath><clipPath id="81ad866c85"><rect x="0" width="810" y="0" height="184"/></clipPath><clipPath id="2d014f9053"><path d="M 0 561.261719 L 810 561.261719 L 810 654.074219 L 0 654.074219 Z M 0 561.261719 " clip-rule="nonzero"/></clipPath><clipPath id="e9555af54e"><path d="M 0 0.261719 L 810 0.261719 L 810 93.074219 L 0 93.074219 Z M 0 0.261719 " clip-rule="nonzero"/></clipPath><clipPath id="3f0bcadc6b"><rect x="0" width="810" y="0" height="94"/></clipPath><clipPath id="43a3d039c3"><path d="M 0 704.921875 L 809.996094 704.921875 L 809.996094 756.417969 L 0 756.417969 Z M 0 704.921875 " clip-rule="nonzero"/></clipPath><clipPath id="5ebbe1c51a"><path d="M 0 0.921875 L 809.996094 0.921875 L 809.996094 52.417969 L 0 52.417969 Z M 0 0.921875 " clip-rule="nonzero"/></clipPath><clipPath id="551096ad69"><rect x="0" width="810" y="0" height="53"/></clipPath><clipPath id="ae4275df5e"><path d="M 0 784.253906 L 810 784.253906 L 810 810 L 0 810 Z M 0 784.253906 " clip-rule="nonzero"/></clipPath><clipPath id="6676890f94"><path d="M 0 0.253906 L 810 0.253906 L 810 26 L 0 26 Z M 0 0.253906 " clip-rule="nonzero"/></clipPath><clipPath id="3fa937a8ae"><rect x="0" width="810" y="0" height="26"/></clipPath></defs><g clip-path="url(#308584333c)"><g transform="matrix(1, 0, 0, 1, 0, 0.000000000000039746)"><g clip-path="url(#e41e4bd302)"><g clip-path="url(#672a4d8bae)"><path fill="#ffffff" d="M 809.996094 0.00390625 L 809.996094 270.484375 L -0.386719 270.484375 L -0.386719 0.00390625 Z M 809.996094 0.00390625 " fill-opacity="1" fill-rule="nonzero"/></g></g></g></g><g clip-path="url(#809992a783)"><g transform="matrix(1, 0, 0, 1, 0, 324)"><g clip-path="url(#81ad866c85)"><g clip-path="url(#f4667ab782)"><path fill="#ffffff" d="M 810 0.667969 L 810 183.316406 L 0.195312 183.316406 L 0.195312 0.667969 Z M 810 0.667969 " fill-opacity="1" fill-rule="nonzero"/></g></g></g></g><g clip-path="url(#2d014f9053)"><g transform="matrix(1, 0, 0, 1, 0, 561)"><g clip-path="url(#3f0bcadc6b)"><g clip-path="url(#e9555af54e)"><path fill="#ffffff" d="M 810 0.261719 L 810 93.074219 L 0.0625 93.074219 L 0.0625 0.261719 Z M 810 0.261719 " fill-opacity="1" fill-rule="nonzero"/></g></g></g></g><g clip-path="url(#43a3d039c3)"><g transform="matrix(1, 0, 0, 1, 0, 704)"><g clip-path="url(#551096ad69)"><g clip-path="url(#5ebbe1c51a)"><path fill="#ffffff" d="M 809.996094 0.921875 L 809.996094 52.417969 L -0.078125 52.417969 L -0.078125 0.921875 Z M 809.996094 0.921875 " fill-opacity="1" fill-rule="nonzero"/></g></g></g></g><g clip-path="url(#ae4275df5e)"><g transform="matrix(1, 0, 0, 1, 0, 784)"><g clip-path="url(#3fa937a8ae)"><g clip-path="url(#6676890f94)"><path fill="#ffffff" d="M 810 0.253906 L 810 26 L 0.0234375 26 L 0.0234375 0.253906 Z M 810 0.253906 " fill-opacity="1" fill-rule="nonzero"/></g></g></g></g></svg>